<?xml version="1.0" standalone="no"?>
<!DOCTYPE svg PUBLIC "-//W3C//DTD SVG 20010904//EN"
 "http://www.w3.org/TR/2001/REC-SVG-20010904/DTD/svg10.dtd">
<svg version="1.0" xmlns="http://www.w3.org/2000/svg"
 width="700.000000pt" height="700.000000pt" viewBox="0 0 700.000000 700.000000"
 preserveAspectRatio="xMidYMid meet">
<metadata>
Created by potrace 1.11, written by Peter Selinger 2001-2013
</metadata>
<g transform="translate(0.000000,700.000000) scale(0.100000,-0.100000)"
fill="#000000" stroke="none">
<path d="M439 6988 c0 -7 -1 -106 -1 -219 l-1 -206 -219 1 -218 1 0 -330 0
-330 218 0 219 1 1 -2941 c0 -1617 1 -2946 1 -2952 1 -10 73 -13 326 -13 253
0 325 3 326 13 1 6 2 1335 2 2952 l2 2940 2622 1 c1827 0 2623 -3 2626 -10 1
-6 2 -585 1 -1286 0 -701 3 -1279 7 -1285 5 -6 122 -9 321 -9 172 1 316 2 321
3 4 1 6 731 5 1623 l-3 1621 -2950 1 -2950 1 0 215 -1 215 -327 3 c-258 2
-327 0 -328 -10z"/>
<path d="M1530 5141 l0 -329 1838 0 c1010 -1 1847 -1 1860 -1 l22 -1 0 -2075
c0 -1969 -1 -2075 -17 -2076 -10 -1 -846 -2 -1858 -3 l-1840 -1 -3 -328 -2
-327 2187 2 2188 3 1 2733 0 2732 -2188 0 -2188 0 0 -329z"/>
<path d="M3650 4048 l0 -328 53 0 c245 -2 409 -1 414 3 7 8 6 638 -2 645 -4 4
-110 7 -236 7 l-229 0 0 -327z"/>
<path d="M4340 4048 l0 -328 68 -1 c200 -2 395 0 399 5 6 6 9 646 3 647 -3 1
-110 2 -237 3 l-233 1 0 -327z"/>
<path d="M1568 3282 l-38 -3 0 -324 c0 -249 3 -324 13 -327 6 -2 596 -4 1310
-4 861 1 1297 -2 1298 -9 1 -5 2 -350 3 -765 l1 -755 328 -1 327 -1 0 71 c4
452 1 2108 -3 2112 -6 6 -3175 11 -3239 6z"/>
</g>
</svg>
