<?xml version="1.0" standalone="no"?>
<!DOCTYPE svg PUBLIC "-//W3C//DTD SVG 20010904//EN"
 "http://www.w3.org/TR/2001/REC-SVG-20010904/DTD/svg10.dtd">
<svg version="1.0" xmlns="http://www.w3.org/2000/svg"
 width="700.000000pt" height="700.000000pt" viewBox="0 0 700.000000 700.000000"
 preserveAspectRatio="xMidYMid meet">
<metadata>
Created by potrace 1.11, written by Peter Selinger 2001-2013
</metadata>
<g transform="translate(0.000000,700.000000) scale(0.100000,-0.100000)"
fill="#000000" stroke="none">
<path d="M639 6996 c-2 -2 -24 -7 -48 -11 -225 -33 -445 -215 -536 -442 -59
-146 -56 46 -53 -3073 2 -1570 7 -2868 11 -2885 73 -287 258 -482 532 -562 57
-17 223 -18 2935 -20 3099 -2 2924 -4 3059 50 97 39 168 86 245 163 75 75 123
147 162 242 57 141 53 -48 53 3052 -1 2785 -1 2857 -20 2930 -68 263 -254 457
-514 534 l-70 21 -2876 2 c-1581 2 -2877 1 -2880 -1z"/>
</g>
</svg>
