<svg fill="none" height="394" width="1800" xmlns="http://www.w3.org/2000/svg" xmlns:xlink="http://www.w3.org/1999/xlink"><mask id="a" height="394" maskUnits="userSpaceOnUse" width="1800" x="0" y="0"><path d="m0 0h1800v394h-1800z" fill="#ffffff"/></mask><g fill="#fff" mask="url(#a)"><path d="m-541 148v-141.2h-66.8l-35.6 92.2-35.6-92.2h-67v141.2h49.6v-90l33.2 90h39l33.4-90.4v90.4zm189.097-141.2h-58.4l-30.8 56.2-30.8-56.2h-59l64.8 99.2v42h50.2v-42zm244.6 141.2v-141.2h-49.8v74.4l-67.4-74.4h-41.8v141.2h50v-75.6l67 75.6zm191.598 0-61.2-141.2h-57.6l-61 141.2h55.6l7.6-23h54l7.6 23zm-73.2-54.2h-32.8l16.2-47.8zm289.897 54.2v-141.2h-66.8l-35.6 92.2-35.6-92.2h-67v141.2h49.6v-90l33.2 90h39l33.4-90.4v90.4zm175.097 0v-32h-100.2v-22.6h91v-31.8h-91v-23.2h98.4v-31.6h-149v141.2zm141.602 0v-141.2h-50.6v141.2zm169-45.6c0-13.2-5.8-20.6-9.4-24.2-5.4-5.8-13-10-29.2-13.8-25.2-5.8-50.2-9.2-57.2-14.8-2.8-2.2-3.2-4.8-3.2-6.4 0-1.4.4-4.6 3.2-6.8 6-5 18.2-4.8 19-4.8 12.8 0 20 3.2 23.2 8.6.8 1.4 1.2 3 1.8 4.6l49.4-2.8c-1-6.2-3-18.6-16.4-28.4-4.2-3.2-8.8-5.6-13.8-7.2-11.8-4-31.6-5.6-44-5.6-36.2 0-55.8 9.8-65 24.6-4 6.2-6.2 13.2-6.2 20.8 0 3.6.4 11.6 5.6 19.6 7.2 11 18.2 15.2 30.2 18.6 11 3 22.2 4.8 33.2 7 9.8 1.8 18.2 3.4 21.6 4.8 6.6 2.8 8 7 8 10.2 0 5-3.8 9-8 11.2-4.8 2.4-11.2 3-16.4 3-13.2 0-20.2-2.6-25-6.2-5-3.6-6-7.4-6.4-9.8l-49.8 1.2c.8 5.2 1.8 16.2 11.4 26.8 10.4 11.8 29.2 19.6 62.4 19.6 38.6 0 59.8-8.2 71.6-23 6-7.4 9.4-17.2 9.4-26.8zm159.304 1.2v-96.8h-50.8v93.2c0 4-.4 8-3.4 11-3.6 3.8-9.4 3.6-14 3.6h-11.6v33.4h29c14 0 28.8-1 39.6-11.4 12-11.6 11.2-28.2 11.2-33zm192.405 44.4-61.2-141.2h-57.6l-61.003 141.2h55.603l7.6-23h54l7.6 23zm-73.2-54.2h-32.8l16.2-47.8zm252.87 8.4-48.2-5c-1.8 4.6-2.8 6.2-4.4 8.4-4.4 5.8-15.6 15.2-34.4 15.2-6.4 0-21.4-.4-32.4-14.8-3.8-4.8-9.2-13.8-9.2-28.8 0-11.2 3.2-23 11-31.4 11.2-11.8 27.2-12.8 32-12.8 11.8-.2 24.4 3.8 32 13.6 2 2.6 2.8 4.2 4.2 7l46.8-8.2c-1.2-3.8-4.2-13.2-12-21.6-11.8-13-33.6-23-72-23-47 0-69.8 16.2-82.2 34-11.8 17-12.8 35.2-12.8 42.6 0 41.4 27 58.8 41 65.4 10.6 5 25.8 10 52.4 10 24.6 0 54-4.6 72.2-23 10.6-10.8 14.4-22.4 16-27.6zm194.1-25.4c0-21.4-8.2-36-12.8-42.8-9.8-14-27.2-28.8-64.6-31.8-6.4-.6-12.6-.6-19-.6-31.6.4-48.8 7.6-60.8 15.8-11.6 7.8-30.6 25.6-30.6 61.2 0 9 .6 27.4 15.6 45.6 7 8.4 14 13 17.8 15.2 11.4 6.8 29.6 13.4 59.6 13.4 20 0 32.4-2.4 40.6-4.8 8.4-2.4 15.6-5.8 23-10.8 28.6-19.4 31.2-47.8 31.2-60.4zm-52 .4c0 16-6.4 34-22.2 41-7.6 3.4-16.6 3.4-19 3.4-8.6 0-31.4-1.8-39.8-27-2.6-7.4-2.8-14.6-2.8-17.2 0-17.2 7.6-34.2 24.2-41.2 6.2-2.6 11.6-3.2 18.2-3.2 7.6 0 11.4 1 15 2.2 6.8 2.4 11.6 6 13.6 8 5.2 4.6 12.8 16 12.8 34zm410 29.2c0-10.4-2-19-10.4-26-7-6-15-7.4-23.8-8.8 11.4-2.8 17.8-8.2 21-12.2 5.8-7.4 6-16.4 6-19.6 0-9-2.8-15-4.8-18.2-8.4-13.8-25.8-14.8-40-14.8h-118.6v141.2h108.6c18 0 40.8-1.4 53.8-17 8-9.8 8.2-20.2 8.2-24.6zm-55.6-56.8c0 1.8-.6 4-1.4 5.6-3.2 5.8-10.6 5.4-15.8 5.4h-46.8v-22h50.4c4.6 0 9.4.6 12 5 1.6 2.6 1.6 5 1.6 6zm5.4 53.2c0 6.4-3.2 11-9.6 12.4-2.6.6-6.6.6-7 .6h-53.2v-24.6h57c3.4 0 12.8.2 12.8 11.6z"/><path clip-rule="evenodd" d="m945.995 233h-50.8v-51h50.8zm153.305 0-22.1-51h-57.6l-22.036 51h47.036l4-11.8 4.09 11.8zm93.71 0h-54.11c1.82-7.146 4.96-15.2 10.37-23 12.4-17.8 35.2-34 82.2-34 38.4 0 60.2 10 72 23 7.8 8.4 10.8 17.8 12 21.6l-46.8 8.2v-.008c-1.4-2.795-2.2-4.394-4.2-6.992-7.6-9.8-20.2-13.8-32-13.6-4.8 0-20.8 1-32 12.8-3.25 3.505-5.71 7.602-7.46 12zm316.88 0c-2.76-11.221-7.45-19.254-10.52-23.8-9.8-14-27.2-28.8-64.6-31.8-6.4-.6-12.6-.6-19-.6-31.6.4-48.8 7.6-60.8 15.8-9.08 6.102-22.68 18.324-28.17 40.4h53.18c3.75-9.422 10.51-17.352 20.59-21.6 6.2-2.6 11.6-3.2 18.2-3.2 7.6 0 11.4 1 15 2.2 6.8 2.4 11.6 6 13.6 8 2.98 2.64 6.76 7.519 9.43 14.6zm300.11 90.195c17.69-.105 39.4-1.92 51.97-16.995 8-9.8 8.2-20.2 8.2-24.6 0-10.4-2-19-10.4-26-7-6-15-7.4-23.8-8.8 11.4-2.8 17.8-8.2 21-12.2 5.8-7.4 6-16.4 6-19.6 0-9-2.8-15-4.8-18.2-8.4-13.8-25.8-14.8-40-14.8h-118.6v51h51v-19.2h50.4c4.6 0 9.4.6 12 5 1.6 2.6 1.6 5 1.6 6 0 1.8-.6 4-1.4 5.6a8.983 8.983 0 0 1 -3.17 3.341v32.792c4.14.458 9.97 2.49 9.97 11.467 0 6.4-3.2 11-9.6 12.4-.12.028-.25.054-.37.079zm-1810-22.995h-32.305l-7.6 23h-55.6l61-141.2h57.6l22.105 51h-45.2v4.051l-5.505-15.851-16.2 47.8h21.705zm640.674-67.2c-1.609-4.939-1.783-9.226-1.783-11.6 0-7.6 2.2-14.6 6.2-20.8 9.2-14.8 28.8-24.6 65-24.6 12.4 0 32.2 1.6 44 5.6 5 1.6 9.6 4 13.8 7.2 13.4 9.8 15.4 22.2 16.4 28.4l-49.4 2.8c-.18-.479-.342-.959-.502-1.432v-.002c-.374-1.107-.738-2.186-1.298-3.166-3.2-5.4-10.4-8.6-23.2-8.6h-.09c-1.368-.007-13.073-.064-18.91 4.8-2.8 2.2-3.2 5.4-3.2 6.8 0 1.6.4 4.2 3.2 6.4 3.947 3.158 13.619 5.616 25.823 8.2zm-22.983 0h-50.6v-51h50.6zm-241.802 0h-50.6v-51h149v31.6h-98.4zm-74.897 0h-49.8v-.2l-.074.2h-36.618l19.692-51h66.8zm-118.308 0-19.692-51h-67v51zm-723.684 90.2v-141.2h-66.8l-35.6 92.2-35.6-92.2h-67v141.2h49.6v-90l33.2 90h39l33.4-90.4v90.4zm189.097-141.2h-58.4l-30.8 56.2-30.8-56.2h-59l64.8 99.2v42h50.2v-42zm244.6 0v141.2h-42l-67-75.6v75.6h-50v-141.2h41.8l67.4 74.4v-74.4zm1053.298 212h-50.8v-51h50.8zm153.305 0-22.1-51h-57.6l-22.036 51h47.036l4-11.8 4.09 11.8zm93.71 0h-54.11c1.82-7.146 4.96-15.2 10.37-23 12.4-17.8 35.2-34 82.2-34 38.4 0 60.2 10 72 23 7.8 8.4 10.8 17.8 12 21.6l-46.8 8.2v-.008c-1.4-2.795-2.2-4.394-4.2-6.992-7.6-9.8-20.2-13.8-32-13.6-4.8 0-20.8 1-32 12.8-3.25 3.505-5.71 7.602-7.46 12zm316.88 0c-2.76-11.221-7.45-19.254-10.52-23.8-9.8-14-27.2-28.8-64.6-31.8-6.4-.6-12.6-.6-19-.6-31.6.4-48.8 7.6-60.8 15.8-9.08 6.102-22.68 18.324-28.17 40.4h53.18c3.75-9.422 10.51-17.352 20.59-21.6 6.2-2.6 11.6-3.2 18.2-3.2 7.6 0 11.4 1 15 2.2 6.8 2.4 11.6 6 13.6 8 2.98 2.64 6.76 7.519 9.43 14.6zm300.11 90.195c17.69-.105 39.4-1.92 51.97-16.995 8-9.8 8.2-20.2 8.2-24.6 0-10.4-2-19-10.4-26-7-6-15-7.4-23.8-8.8 11.4-2.8 17.8-8.2 21-12.2 5.8-7.4 6-16.4 6-19.6 0-9-2.8-15-4.8-18.2-8.4-13.8-25.8-14.8-40-14.8h-118.6v51h51v-19.2h50.4c4.6 0 9.4.6 12 5 1.6 2.6 1.6 5 1.6 6 0 1.8-.6 4-1.4 5.6a8.983 8.983 0 0 1 -3.17 3.341v32.792c4.14.458 9.97 2.49 9.97 11.467 0 6.4-3.2 11-9.6 12.4-.12.028-.25.054-.37.079zm-1810-22.995h-32.305l-7.6 23h-55.6l61-141.2h57.6l22.105 51h-45.2v4.051l-5.505-15.851-16.2 47.8h21.705zm640.674-67.2c-1.609-4.939-1.783-9.226-1.783-11.6 0-7.6 2.2-14.6 6.2-20.8 9.2-14.8 28.8-24.6 65-24.6 12.4 0 32.2 1.6 44 5.6 5 1.6 9.6 4 13.8 7.2 13.4 9.8 15.4 22.2 16.4 28.4l-49.4 2.8c-.18-.479-.342-.959-.502-1.432v-.002c-.374-1.107-.738-2.186-1.298-3.166-3.2-5.4-10.4-8.6-23.2-8.6h-.09c-1.368-.007-13.073-.064-18.91 4.8-2.8 2.2-3.2 5.4-3.2 6.8 0 1.6.4 4.2 3.2 6.4 3.947 3.158 13.619 5.616 25.823 8.2zm-22.983 0h-50.6v-51h50.6zm-241.802 0h-50.6v-51h149v31.6h-98.4zm-74.897 0h-49.8v-.2l-.074.2h-36.618l19.692-51h66.8zm-118.308 0-19.692-51h-67v51zm-723.684 90.2v-141.2h-66.8l-35.6 92.2-35.6-92.2h-67v141.2h49.6v-90l33.2 90h39l33.4-90.4v90.4zm189.097-141.2h-58.4l-30.8 56.2-30.8-56.2h-59l64.8 99.2v42h50.2v-42zm244.6 0v141.2h-42l-67-75.6v75.6h-50v-141.2h41.8l67.4 74.4v-74.4z" fill-rule="evenodd"/></g></svg>
