<svg width="100" height="100" viewBox="0 0 100 100" xmlns="http://www.w3.org/2000/svg"><title>codepen</title><g fill="none" fill-rule="evenodd"><circle cx="50" cy="50" r="50" fill="#EEF4F4"/><path d="M80.9 40.2v-.1c0-.1 0-.1-.1-.2v-.1c0-.1 0-.1-.1-.2 0 0 0-.1-.1-.1 0-.1-.1-.1-.1-.2l-.1-.1c0-.1-.1-.1-.1-.2l-.1-.1-.1-.1-.1-.1s-.1-.1-.2-.1l-.1-.1-28.2-19c-.9-.6-2.1-.6-2.9 0L20.3 38.4l-.1.1c-.1 0-.1.1-.2.1l-.1.1-.1.1-.1.1c0 .1-.1.1-.1.2l-.1.1c0 .1-.1.1-.1.2 0 0 0 .1-.1.1 0 .1 0 .1-.1.2v.3l-.1.1c0 .1-.1.2-.1.3v18.8c0 .1.1.2.1.3v.1c0 .1 0 .1.1.2v.1c0 .1 0 .1.1.2 0 0 0 .1.1.1 0 .1.1.1.1.2 0 0 0 .1.1.1 0 .1.1.1.1.2l.1.1.1.1.1.1s.1.1.2.1l.1.1L48.6 80c.4.3 1 .4 1.5.4s1-.1 1.5-.4l28.3-18.8.1-.1c.1 0 .1-.1.2-.1l.1-.1.1-.1.1-.1c0-.1.1-.1.1-.2l.1-.1c0-.1.1-.1.1-.2 0 0 0-.1.1-.1 0-.1 0-.1.1-.2v-.3l.1-.1c0-.1.1-.2.1-.3V40.6c-.2-.1-.3-.3-.3-.4zM53 26.7l20.6 13.9-9.2 6.2L53 39.1V26.7zm-6 0v12.4l-11.3 7.7-9.4-6.2L47 26.7zM24 45.6l6.6 4.4-6.6 4.4v-8.8zm23 27.7L26.4 59.4l9.2-6.2L47 60.9v12.4zm3-17L40.6 50l9.4-6.3 9.4 6.3-9.4 6.3zm3 17V60.9l11.3-7.7 9.4 6.2L53 73.3zm23-18.9L69.4 50l6.6-4.4v8.8z" fill="#1E1E1E"/></g></svg>