<svg width="100" height="100" viewBox="0 0 100 100" xmlns="http://www.w3.org/2000/svg"><title>codepen</title><g fill="none" fill-rule="evenodd"><circle cx="50" cy="50" r="50" fill="#EEF4F4"/><path d="M19 50c0-5.6 1.4-10.8 4.2-15.6 2.8-4.8 6.5-8.5 11.3-11.3C39.2 20.4 44.4 19 50 19s10.8 1.4 15.6 4.2c4.8 2.8 8.5 6.5 11.3 11.3C79.6 39.2 81 44.4 81 50s-1.4 10.8-4.2 15.6c-2.8 4.8-6.5 8.5-11.3 11.3C60.8 79.6 55.6 81 50 81s-10.8-1.4-15.6-4.2c-4.8-2.8-8.5-6.5-11.3-11.3C20.4 60.8 19 55.6 19 50zm5.1 0c0 6.4 2.2 12.1 6.5 17.1 2-3.9 5.1-7.6 9.4-11.1 4.3-3.5 8.5-5.7 12.6-6.6-.6-1.4-1.2-2.7-1.8-3.9-7.1 2.3-14.8 3.4-23.1 3.4-1.6 0-2.8 0-3.6-.1v.6c.1.2 0 .4 0 .6zm.9-6.4c.9.1 2.3.1 4 .1 6.9 0 13.5-.9 19.7-2.8-3.1-5.6-6.6-10.2-10.4-14-3.3 1.7-6.1 3.9-8.4 6.9-2.4 3-4 6.3-4.9 9.8zm9.2 26.8c4.7 3.6 9.9 5.5 15.8 5.5 3.1 0 6.1-.6 9.1-1.7-.8-7.1-2.4-13.9-4.8-20.5-3.8.8-7.6 2.9-11.5 6.3-3.9 3.2-6.8 6.7-8.6 10.4zM43.7 25c3.6 3.8 7 8.5 10.1 14.1 5.6-2.4 9.9-5.4 12.7-9-4.8-4-10.3-6-16.5-6-2.1 0-4.2.3-6.3.9zM56 43.5c.6 1.3 1.3 3 2.1 5 3.1-.3 6.4-.4 10-.4 2.6 0 5.1.1 7.6.2-.3-5.6-2.4-10.6-6.1-15-2.6 4-7.2 7.4-13.6 10.2zm3.7 9.4c2.1 6.1 3.5 12.4 4.3 18.8 3.3-2.1 5.9-4.8 8-8.1 2.1-3.3 3.3-6.9 3.7-10.7-3-.2-5.8-.3-8.2-.3-2.4-.1-4.9 0-7.8.3z" fill="#1E1E1E"/></g></svg>