<svg width="100" height="100" viewBox="0 0 100 100" xmlns="http://www.w3.org/2000/svg"><title>codepen</title><g fill="none" fill-rule="evenodd"><circle cx="50" cy="50" r="50" fill="#EEF4F4"/><path d="M50 19c-17.6 0-31.8 14.2-31.8 31.8 0 14 9.1 26 21.7 30.2 1.6.3 2.2-.7 2.2-1.5v-5.9c-8.8 1.9-10.7-3.8-10.7-3.8-1.4-3.7-3.5-4.7-3.5-4.7-2.9-2 .2-1.9.2-1.9 3.2.2 4.9 3.3 4.9 3.3 2.8 4.9 7.4 3.5 9.2 2.6.3-2.1 1.1-3.5 2-4.3-7.1-.8-14.5-3.5-14.5-15.7 0-3.5 1.2-6.3 3.3-8.5-.3-.8-1.4-4 .3-8.4 0 0 2.7-.9 8.7 3.3 2.5-.7 5.3-1.1 8-1.1s5.4.4 8 1.1c6.1-4.1 8.7-3.3 8.7-3.3 1.7 4.4.6 7.6.3 8.4 2 2.2 3.3 5.1 3.3 8.5 0 12.2-7.4 14.9-14.5 15.7 1.1 1 2.2 2.9 2.2 5.9v8.7c0 .8.6 1.8 2.2 1.5 12.6-4.2 21.7-16.1 21.7-30.2C81.8 33.2 67.6 19 50 19z" fill="#1E1E1E"/><path d="M30.3 64.6c-.1.2-.3.2-.5.1s-.4-.3-.3-.5c.1-.2.3-.2.5-.1.2.2.3.4.3.5zm1.2 1.5c-.2.1-.4.1-.6-.1-.2-.2-.2-.5-.1-.7.2-.1.4-.1.7.1.2.2.2.5 0 .7zm1.3 1.8c-.2.1-.5 0-.7-.3-.2-.3-.2-.6 0-.8.2-.1.5 0 .7.3.2.3.2.7 0 .8zm1.7 1.8c-.2.2-.5.1-.8-.1-.3-.3-.4-.6-.2-.8.2-.2.5-.1.8.1.3.2.4.6.2.8zm2.4 1c-.1.2-.4.4-.8.3-.4-.1-.6-.4-.5-.7.1-.3.4-.4.8-.3.3.2.6.4.5.7zm2.6.2c0 .3-.3.5-.7.5-.4 0-.7-.2-.7-.5s.3-.5.7-.5c.4 0 .7.2.7.5zm2.4-.4c0 .3-.2.5-.6.6-.4.1-.7-.1-.8-.3 0-.3.2-.5.6-.6.4-.1.8 0 .8.3z" fill="#FFF"/></g></svg>