<svg width="100" height="100" viewBox="0 0 100 100" xmlns="http://www.w3.org/2000/svg"><title>codepen</title><g fill="none" fill-rule="evenodd"><circle cx="50" cy="50" r="50" fill="#EEF4F4"/><path d="M28.2 69.7c2.1 1.2 5.3-.7 7.3-4.2l3.6-6.3c1.3-2.6 1.1-5.7-.5-8.1l-.1-.1c-1.7-2.4-3.9-4.6-4.7-5.4-.4-.5-.8-1-1-1.7-.6-2.2.7-4.4 2.8-5 2.2-.6 4.4.7 5 2.8.2.5.2 1.1.1 1.6-.1.9.2 2.4 1.5 3.8s3.9-1.3 4.8-4.1v-.1c.9-2.8 1.4-5.2 1.2-5.5-.1-.1-.2-.3-.3-.4-1.2-2.3-.3-5 1.9-6.2 2.3-1.2 5-.3 6.2 1.9 1.2 2.3.3 5-1.9 6.2-.1.1-.2.1-.3.1-.2.1-.7 1.3-1.1 2.6-.4 1.4-.8 2.5-.8 2.5 0 .1-.1.3-.1.4l-2.3 8.1 2.4-5c.3.9.8 1 1.8.2.6-.5 1.7-1.3 2.2-1.7 1-.7 1.8-2 2.2-2.8.2-.5.6-.9 1-1.3 1.7-1.4 4.3-1.1 5.7.6 1.4 1.7 1.1 4.3-.6 5.7-.5.4-1.1.7-1.7.8-1 .2-4.5 2.4-6.6 3.9-.4.3-.7.5-.9.8l-5.6 4.3 4.9-2.6s.5.1 1.1 0c1.8-.2 3.6-.5 4-.9.2-.3.5-.5.7-.7 1.6-1.2 3.9-.8 5.1.8 1.2 1.6.8 3.9-.8 5.1-.7.5-1.5.7-2.2.7-1.3 0-4.7-.7-7.6-.2l-.7.1c-2.9.5-6.3 3-7.7 5.6 0 0-1.3 2.4-3 5.3s-1.5 6.1.3 7.1l3.3 1.9c1.7.9 4.4.9 6 0l22.6-12.7c1.7-.9 3-3.2 3-5.1V37.6c0-1.9-1.4-4.2-3-5.1L53 19.7c-1.7-.9-4.4-.9-6 0L24.5 32.4c-1.7.9-3 3.3-3 5.2v24.9c0 1.9 1.4 4.2 3 5.2 0-.1 1.6.8 3.7 2z" fill="#1E1E1E"/></g></svg>