<svg width="100" height="100" viewBox="0 0 100 100" xmlns="http://www.w3.org/2000/svg"><title>codepen</title><g fill="none" fill-rule="evenodd"><circle cx="50" cy="50" r="50" fill="#EEF4F4"/><path d="M38.5 75.3C62 75.3 74.8 55.9 74.8 39v-1.6c2.5-1.8 4.7-4 6.4-6.6-2.3 1-4.7 1.7-7.3 2 2.6-1.6 4.7-4.1 5.6-7.1-2.5 1.5-5.2 2.5-8.1 3.1-2.3-2.5-5.6-4-9.3-4-7 0-12.8 5.7-12.8 12.8 0 1 .1 2 .3 2.9-10.6-.5-20-5.6-26.3-13.3-1.1 1.9-1.7 4.1-1.7 6.4 0 4.4 2.3 8.3 5.7 10.6-2.1-.1-4.1-.6-5.8-1.6v.2c0 6.2 4.4 11.3 10.2 12.5-1.1.3-2.2.4-3.4.4-.8 0-1.6-.1-2.4-.2 1.6 5.1 6.3 8.8 11.9 8.9-4.4 3.4-9.9 5.5-15.8 5.5-1 0-2-.1-3-.2 5.6 3.5 12.3 5.6 19.5 5.6" fill="#1E1E1E"/></g></svg>