<?xml version="1.0" encoding="UTF-8" standalone="no"?>
<svg width="100px" height="100px" viewBox="0 0 100 100" version="1.1" xmlns="http://www.w3.org/2000/svg" xmlns:xlink="http://www.w3.org/1999/xlink">
    <!-- Generator: Sketch 39.1 (31720) - http://www.bohemiancoding.com/sketch -->
    <title>codepen</title>
    <desc>Created with Sketch.</desc>
    <defs></defs>
    <g id="Page-1" stroke="none" stroke-width="1" fill="none" fill-rule="evenodd">
        <g id="codepen">
            <g id="base" fill="#EEF4F4">
                <circle id="Oval" cx="50" cy="50" r="50"></circle>
            </g>
            <g id="codepen_x5F_logo" transform="translate(19.000000, 19.000000)" fill="#1E1E1E">
                <path d="M61.9,21.2 L61.9,21.1 C61.9,21 61.9,21 61.8,20.9 L61.8,20.8 C61.8,20.7 61.8,20.7 61.7,20.6 C61.7,20.6 61.7,20.5 61.6,20.5 C61.6,20.4 61.5,20.4 61.5,20.3 L61.4,20.2 C61.4,20.1 61.3,20.1 61.3,20 L61.2,19.9 L61.1,19.8 L61,19.7 C61,19.7 60.9,19.6 60.8,19.6 L60.7,19.5 L60.7,19.5 L32.5,0.5 C31.6,-0.1 30.4,-0.1 29.6,0.5 L1.3,19.4 L1.3,19.4 L1.2,19.5 C1.1,19.5 1.1,19.6 1,19.6 L0.9,19.7 L0.8,19.8 L0.7,19.9 C0.7,20 0.6,20 0.6,20.1 L0.5,20.2 C0.5,20.3 0.4,20.3 0.4,20.4 C0.4,20.4 0.4,20.5 0.3,20.5 C0.3,20.6 0.3,20.6 0.2,20.7 L0.2,20.8 L0.2,21 L0.1,21.1 C0.1,21.2 -1.42108547e-14,21.3 -1.42108547e-14,21.4 L-1.42108547e-14,40.2 C-1.42108547e-14,40.3 0.1,40.4 0.1,40.5 L0.1,40.6 C0.1,40.7 0.1,40.7 0.2,40.8 L0.2,40.9 C0.2,41 0.2,41 0.3,41.1 C0.3,41.1 0.3,41.2 0.4,41.2 C0.4,41.3 0.5,41.3 0.5,41.4 C0.5,41.4 0.5,41.5 0.6,41.5 C0.6,41.6 0.7,41.6 0.7,41.7 L0.8,41.8 L0.9,41.9 L1,42 C1,42 1.1,42.1 1.2,42.1 L1.3,42.2 L1.3,42.2 L29.6,61 C30,61.3 30.6,61.4 31.1,61.4 C31.6,61.4 32.1,61.3 32.6,61 L60.9,42.2 L60.9,42.2 L61,42.1 C61.1,42.1 61.1,42 61.2,42 L61.3,41.9 L61.4,41.8 L61.5,41.7 C61.5,41.6 61.6,41.6 61.6,41.5 L61.7,41.4 C61.7,41.3 61.8,41.3 61.8,41.2 C61.8,41.2 61.8,41.1 61.9,41.1 C61.9,41 61.9,41 62,40.9 L62,40.8 L62,40.6 L62.1,40.5 C62.1,40.4 62.2,40.3 62.2,40.2 L62.2,21.6 C62,21.5 61.9,21.3 61.9,21.2 L61.9,21.2 Z M34,7.7 L54.6,21.6 L45.4,27.8 L34,20.1 L34,7.7 L34,7.7 Z M28,7.7 L28,20.1 L16.7,27.8 L7.3,21.6 L28,7.7 L28,7.7 Z M5,26.6 L11.6,31 L5,35.4 L5,26.6 L5,26.6 Z M28,54.3 L7.4,40.4 L16.6,34.2 L28,41.9 L28,54.3 L28,54.3 Z M31,37.3 L21.6,31 L31,24.7 L40.4,31 L31,37.3 L31,37.3 Z M34,54.3 L34,41.9 L45.3,34.2 L54.7,40.4 L34,54.3 L34,54.3 Z M57,35.4 L50.4,31 L57,26.6 L57,35.4 L57,35.4 Z" id="Shape"></path>
            </g>
        </g>
    </g>
</svg>