<?xml version="1.0" encoding="UTF-8" standalone="no"?>
<svg width="100px" height="100px" viewBox="0 0 100 100" version="1.1" xmlns="http://www.w3.org/2000/svg" xmlns:xlink="http://www.w3.org/1999/xlink">
    <!-- Generator: Sketch 39.1 (31720) - http://www.bohemiancoding.com/sketch -->
    <title>codepen</title>
    <desc>Created with Sketch.</desc>
    <defs></defs>
    <g id="Page-1" stroke="none" stroke-width="1" fill="none" fill-rule="evenodd">
        <g id="codepen">
            <g id="base" fill="#EEF4F4">
                <circle id="Oval" cx="50" cy="50" r="50"></circle>
            </g>
            <g id="dribbble_x5F_logo" transform="translate(19.000000, 19.000000)" fill="#1E1E1E">
                <path d="M0,31 C0,25.4 1.4,20.2 4.2,15.4 C7,10.6 10.7,6.9 15.5,4.1 C20.2,1.4 25.4,0 31,0 C36.6,0 41.8,1.4 46.6,4.2 C51.4,7 55.1,10.7 57.9,15.5 C60.6,20.2 62,25.4 62,31 C62,36.6 60.6,41.8 57.8,46.6 C55,51.4 51.3,55.1 46.5,57.9 C41.8,60.6 36.6,62 31,62 C25.4,62 20.2,60.6 15.4,57.8 C10.6,55 6.9,51.3 4.1,46.5 C1.4,41.8 0,36.6 0,31 L0,31 Z M5.1,31 C5.1,37.4 7.3,43.1 11.6,48.1 C13.6,44.2 16.7,40.5 21,37 C25.3,33.5 29.5,31.3 33.6,30.4 C33,29 32.4,27.7 31.8,26.5 C24.7,28.8 17,29.9 8.7,29.9 C7.1,29.9 5.9,29.9 5.1,29.8 L5.1,30.4 C5.2,30.6 5.1,30.8 5.1,31 L5.1,31 Z M6,24.6 C6.9,24.7 8.3,24.7 10,24.7 C16.9,24.7 23.5,23.8 29.7,21.9 C26.6,16.3 23.1,11.7 19.3,7.9 C16,9.6 13.2,11.8 10.9,14.8 C8.5,17.8 6.9,21.1 6,24.6 L6,24.6 Z M15.2,51.4 C19.9,55 25.1,56.9 31,56.9 C34.1,56.9 37.1,56.3 40.1,55.2 C39.3,48.1 37.7,41.3 35.3,34.7 C31.5,35.5 27.7,37.6 23.8,41 C19.9,44.2 17,47.7 15.2,51.4 L15.2,51.4 Z M24.7,6 C28.3,9.8 31.7,14.5 34.8,20.1 C40.4,17.7 44.7,14.7 47.5,11.1 C42.7,7.1 37.2,5.1 31,5.1 C28.9,5.1 26.8,5.4 24.7,6 L24.7,6 Z M37,24.5 C37.6,25.8 38.3,27.5 39.1,29.5 C42.2,29.2 45.5,29.1 49.1,29.1 C51.7,29.1 54.2,29.2 56.7,29.3 C56.4,23.7 54.3,18.7 50.6,14.3 C48,18.3 43.4,21.7 37,24.5 L37,24.5 Z M40.7,33.9 C42.8,40 44.2,46.3 45,52.7 C48.3,50.6 50.9,47.9 53,44.6 C55.1,41.3 56.3,37.7 56.7,33.9 C53.7,33.7 50.9,33.6 48.5,33.6 C46.1,33.5 43.6,33.6 40.7,33.9 L40.7,33.9 Z" id="Shape"></path>
            </g>
        </g>
    </g>
</svg>