<?xml version="1.0" encoding="UTF-8" standalone="no"?>
<svg width="100px" height="100px" viewBox="0 0 100 100" version="1.1" xmlns="http://www.w3.org/2000/svg" xmlns:xlink="http://www.w3.org/1999/xlink">
    <!-- Generator: Sketch 39.1 (31720) - http://www.bohemiancoding.com/sketch -->
    <title>codepen</title>
    <desc>Created with Sketch.</desc>
    <defs></defs>
    <g id="Page-1" stroke="none" stroke-width="1" fill="none" fill-rule="evenodd">
        <g id="codepen">
            <g id="base" fill="#EEF4F4">
                <circle id="Oval" cx="50" cy="50" r="50"></circle>
            </g>
            <g id="github_x5F_logo" transform="translate(18.000000, 19.000000)">
                <g id="Group">
                    <path d="M32,0 C14.4,0 0.2,14.2 0.2,31.8 C0.2,45.8 9.3,57.8 21.9,62 C23.5,62.3 24.1,61.3 24.1,60.5 L24.1,54.6 C15.3,56.5 13.4,50.8 13.4,50.8 C12,47.1 9.9,46.1 9.9,46.1 C7,44.1 10.1,44.2 10.1,44.2 C13.3,44.4 15,47.5 15,47.5 C17.8,52.4 22.4,51 24.2,50.1 C24.5,48 25.3,46.6 26.2,45.8 C19.1,45 11.7,42.3 11.7,30.1 C11.7,26.6 12.9,23.8 15,21.6 C14.7,20.8 13.6,17.6 15.3,13.2 C15.3,13.2 18,12.3 24,16.5 C26.5,15.8 29.3,15.4 32,15.4 C34.7,15.4 37.4,15.8 40,16.5 C46.1,12.4 48.7,13.2 48.7,13.2 C50.4,17.6 49.3,20.8 49,21.6 C51,23.8 52.3,26.7 52.3,30.1 C52.3,42.3 44.9,45 37.8,45.8 C38.9,46.8 40,48.7 40,51.7 L40,60.4 C40,61.2 40.6,62.2 42.2,61.9 C54.8,57.7 63.9,45.8 63.9,31.7 C63.8,14.2 49.6,0 32,0 L32,0 Z" id="Shape" fill="#1E1E1E"></path>
                    <path d="M12.3,45.6 C12.2,45.8 12,45.8 11.8,45.7 C11.6,45.6 11.4,45.4 11.5,45.2 C11.6,45 11.8,45 12,45.1 C12.2,45.3 12.3,45.5 12.3,45.6 L12.3,45.6 L12.3,45.6 Z" id="Shape" fill="#FFFFFF"></path>
                    <path d="M13.5,47.1 C13.3,47.2 13.1,47.2 12.9,47 C12.7,46.8 12.7,46.5 12.8,46.3 C13,46.2 13.2,46.2 13.5,46.4 C13.7,46.6 13.7,46.9 13.5,47.1 L13.5,47.1 L13.5,47.1 Z" id="Shape" fill="#FFFFFF"></path>
                    <path d="M14.8,48.9 C14.6,49 14.3,48.9 14.1,48.6 C13.9,48.3 13.9,48 14.1,47.8 C14.3,47.7 14.6,47.8 14.8,48.1 C15,48.4 15,48.8 14.8,48.9 L14.8,48.9 L14.8,48.9 Z" id="Shape" fill="#FFFFFF"></path>
                    <path d="M16.5,50.7 C16.3,50.9 16,50.8 15.7,50.6 C15.4,50.3 15.3,50 15.5,49.8 C15.7,49.6 16,49.7 16.3,49.9 C16.6,50.1 16.7,50.5 16.5,50.7 L16.5,50.7 L16.5,50.7 Z" id="Shape" fill="#FFFFFF"></path>
                    <path d="M18.9,51.7 C18.8,51.9 18.5,52.1 18.1,52 C17.7,51.9 17.5,51.6 17.6,51.3 C17.7,51 18,50.9 18.4,51 C18.7,51.2 19,51.4 18.9,51.7 L18.9,51.7 L18.9,51.7 Z" id="Shape" fill="#FFFFFF"></path>
                    <path d="M21.5,51.9 C21.5,52.2 21.2,52.4 20.8,52.4 C20.4,52.4 20.1,52.2 20.1,51.9 C20.1,51.6 20.4,51.4 20.8,51.4 C21.2,51.4 21.5,51.6 21.5,51.9 L21.5,51.9 L21.5,51.9 Z" id="Shape" fill="#FFFFFF"></path>
                    <path d="M23.9,51.5 C23.9,51.8 23.7,52 23.3,52.1 C22.9,52.2 22.6,52 22.5,51.8 C22.5,51.5 22.7,51.3 23.1,51.2 C23.5,51.1 23.9,51.2 23.9,51.5 L23.9,51.5 L23.9,51.5 Z" id="Shape" fill="#FFFFFF"></path>
                </g>
            </g>
        </g>
    </g>
</svg>