<?xml version="1.0" encoding="UTF-8" standalone="no"?>
<svg width="100px" height="100px" viewBox="0 0 100 100" version="1.1" xmlns="http://www.w3.org/2000/svg" xmlns:xlink="http://www.w3.org/1999/xlink">
    <!-- Generator: Sketch 39.1 (31720) - http://www.bohemiancoding.com/sketch -->
    <title>codepen</title>
    <desc>Created with Sketch.</desc>
    <defs></defs>
    <g id="Page-1" stroke="none" stroke-width="1" fill="none" fill-rule="evenodd">
        <g id="codepen">
            <g id="base" fill="#EEF4F4">
                <circle id="Oval" cx="50" cy="50" r="50"></circle>
            </g>
            <g id="treehouse_x5F_logo" transform="translate(21.000000, 19.000000)" fill="#1E1E1E">
                <path d="M7.2,50.7 C9.3,51.9 12.5,50 14.5,46.5 L18.1,40.2 C19.4,37.6 19.2,34.5 17.6,32.1 L17.5,32 C15.8,29.6 13.6,27.4 12.8,26.6 C12.4,26.1 12,25.6 11.8,24.9 C11.2,22.7 12.5,20.5 14.6,19.9 C16.8,19.3 19,20.6 19.6,22.7 C19.8,23.2 19.8,23.8 19.7,24.3 C19.6,25.2 19.9,26.7 21.2,28.1 C22.5,29.5 25.1,26.8 26,24 L26,23.9 C26.9,21.1 27.4,18.7 27.2,18.4 C27.1,18.3 27,18.1 26.9,18 C25.7,15.7 26.6,13 28.8,11.8 C31.1,10.6 33.8,11.5 35,13.7 C36.2,16 35.3,18.7 33.1,19.9 C33,20 32.9,20 32.8,20 C32.6,20.1 32.1,21.3 31.7,22.6 C31.3,24 30.9,25.1 30.9,25.1 C30.9,25.2 30.8,25.4 30.8,25.5 L28.5,33.6 L30.9,28.6 C31.2,29.5 31.7,29.6 32.7,28.8 C33.3,28.3 34.4,27.5 34.9,27.1 C35.9,26.4 36.7,25.1 37.1,24.3 C37.3,23.8 37.7,23.4 38.1,23 C39.8,21.6 42.4,21.9 43.8,23.6 C45.2,25.3 44.9,27.9 43.2,29.3 C42.7,29.7 42.1,30 41.5,30.1 C40.5,30.3 37,32.5 34.9,34 C34.5,34.3 34.2,34.5 34,34.8 L28.4,39.1 L33.3,36.5 C33.3,36.5 33.8,36.6 34.4,36.5 C36.2,36.3 38,36 38.4,35.6 C38.6,35.3 38.9,35.1 39.1,34.9 C40.7,33.7 43,34.1 44.2,35.7 C45.4,37.3 45,39.6 43.4,40.8 C42.7,41.3 41.9,41.5 41.2,41.5 C39.9,41.5 36.5,40.8 33.6,41.3 L32.9,41.4 C30,41.9 26.6,44.4 25.2,47 C25.2,47 23.9,49.4 22.2,52.3 C20.5,55.2 20.7,58.4 22.5,59.4 L25.8,61.3 C27.5,62.2 30.2,62.2 31.8,61.3 L54.4,48.6 C56.1,47.7 57.4,45.4 57.4,43.5 L57.4,18.6 C57.4,16.7 56,14.4 54.4,13.5 L32,0.7 C30.3,-0.2 27.6,-0.2 26,0.7 L3.5,13.4 C1.8,14.3 0.5,16.7 0.5,18.6 L0.5,43.5 C0.5,45.4 1.9,47.7 3.5,48.7 C3.5,48.6 5.1,49.5 7.2,50.7 L7.2,50.7 Z" id="Shape"></path>
            </g>
        </g>
    </g>
</svg>