<?xml version="1.0" encoding="UTF-8" standalone="no"?>
<svg width="100px" height="100px" viewBox="0 0 100 100" version="1.1" xmlns="http://www.w3.org/2000/svg" xmlns:xlink="http://www.w3.org/1999/xlink">
    <!-- Generator: Sketch 39.1 (31720) - http://www.bohemiancoding.com/sketch -->
    <title>codepen</title>
    <desc>Created with Sketch.</desc>
    <defs></defs>
    <g id="Page-1" stroke="none" stroke-width="1" fill="none" fill-rule="evenodd">
        <g id="codepen">
            <g id="base" fill="#EEF4F4">
                <circle id="Oval" cx="50" cy="50" r="50"></circle>
            </g>
            <g id="twitter_x5F_logo" transform="translate(19.000000, 24.000000)" fill="#1E1E1E">
                <path d="M19.5,51.3 C43,51.3 55.8,31.9 55.8,15 L55.8,13.4 C58.3,11.6 60.5,9.4 62.2,6.8 C59.9,7.8 57.5,8.5 54.9,8.8 C57.5,7.2 59.6,4.7 60.5,1.7 C58,3.2 55.3,4.2 52.4,4.8 C50.1,2.3 46.8,0.8 43.1,0.8 C36.1,0.8 30.3,6.5 30.3,13.6 C30.3,14.6 30.4,15.6 30.6,16.5 C20,16 10.6,10.9 4.3,3.2 C3.2,5.1 2.6,7.3 2.6,9.6 C2.6,14 4.9,17.9 8.3,20.2 C6.2,20.1 4.2,19.6 2.5,18.6 L2.5,18.8 C2.5,25 6.9,30.1 12.7,31.3 C11.6,31.6 10.5,31.7 9.3,31.7 C8.5,31.7 7.7,31.6 6.9,31.5 C8.5,36.6 13.2,40.3 18.8,40.4 C14.4,43.8 8.9,45.9 3,45.9 C2,45.9 1,45.8 1.0658141e-14,45.7 C5.6,49.2 12.3,51.3 19.5,51.3" id="Shape"></path>
            </g>
        </g>
    </g>
</svg>