<?xml version="1.0" encoding="utf-8"?>
<!-- Generator: Adobe Illustrator 20.1.0, SVG Export Plug-In . SVG Version: 6.00 Build 0)  -->
<svg version="1.1" xmlns="http://www.w3.org/2000/svg" xmlns:xlink="http://www.w3.org/1999/xlink" x="0px" y="0px"
	 viewBox="0 0 100 100" style="enable-background:new 0 0 100 100;" xml:space="preserve">
<style type="text/css">
	.st0{fill:#FFFFFF;}
	.st1{display:none;}
	.st2{display:inline;fill:#FFFFFF;}
	.st3{display:inline;}
	.st4{fill-rule:evenodd;clip-rule:evenodd;fill:#FFFFFF;}
</style>
<g id="base">
	<circle cx="50" cy="50" r="50"/>
</g>
<g id="twitter_x5F_logo">
	<path class="st0" d="M38.5,75.3c23.5,0,36.3-19.4,36.3-36.3c0-0.6,0-1.1,0-1.6c2.5-1.8,4.7-4,6.4-6.6c-2.3,1-4.7,1.7-7.3,2
		c2.6-1.6,4.7-4.1,5.6-7.1c-2.5,1.5-5.2,2.5-8.1,3.1c-2.3-2.5-5.6-4-9.3-4c-7,0-12.8,5.7-12.8,12.8c0,1,0.1,2,0.3,2.9
		c-10.6-0.5-20-5.6-26.3-13.3c-1.1,1.9-1.7,4.1-1.7,6.4c0,4.4,2.3,8.3,5.7,10.6c-2.1-0.1-4.1-0.6-5.8-1.6c0,0.1,0,0.1,0,0.2
		c0,6.2,4.4,11.3,10.2,12.5c-1.1,0.3-2.2,0.4-3.4,0.4c-0.8,0-1.6-0.1-2.4-0.2c1.6,5.1,6.3,8.8,11.9,8.9c-4.4,3.4-9.9,5.5-15.8,5.5
		c-1,0-2-0.1-3-0.2C24.6,73.2,31.3,75.3,38.5,75.3"/>
</g>
<g id="treehouse_x5F_logo" class="st1">
	<path class="st2" d="M28.2,69.7c2.1,1.2,5.3-0.7,7.3-4.2l3.6-6.3c1.3-2.6,1.1-5.7-0.5-8.1L38.5,51c-1.7-2.4-3.9-4.6-4.7-5.4
		c-0.4-0.5-0.8-1-1-1.7c-0.6-2.2,0.7-4.4,2.8-5c2.2-0.6,4.4,0.7,5,2.8c0.2,0.5,0.2,1.1,0.1,1.6c-0.1,0.9,0.2,2.4,1.5,3.8
		c1.3,1.4,3.9-1.3,4.8-4.1l0-0.1c0.9-2.8,1.4-5.2,1.2-5.5c-0.1-0.1-0.2-0.3-0.3-0.4c-1.2-2.3-0.3-5,1.9-6.2c2.3-1.2,5-0.3,6.2,1.9
		c1.2,2.3,0.3,5-1.9,6.2c-0.1,0.1-0.2,0.1-0.3,0.1c-0.2,0.1-0.7,1.3-1.1,2.6c-0.4,1.4-0.8,2.5-0.8,2.5c0,0.1-0.1,0.3-0.1,0.4
		l-2.3,8.1l2.4-5c0.3,0.9,0.8,1,1.8,0.2c0.6-0.5,1.7-1.3,2.2-1.7c1-0.7,1.8-2,2.2-2.8c0.2-0.5,0.6-0.9,1-1.3
		c1.7-1.4,4.3-1.1,5.7,0.6c1.4,1.7,1.1,4.3-0.6,5.7c-0.5,0.4-1.1,0.7-1.7,0.8c-1,0.2-4.5,2.4-6.6,3.9c-0.4,0.3-0.7,0.5-0.9,0.8
		l-5.6,4.3l4.9-2.6c0,0,0.5,0.1,1.1,0c1.8-0.2,3.6-0.5,4-0.9c0.2-0.3,0.5-0.5,0.7-0.7c1.6-1.2,3.9-0.8,5.1,0.8
		c1.2,1.6,0.8,3.9-0.8,5.1c-0.7,0.5-1.5,0.7-2.2,0.7c-1.3,0-4.7-0.7-7.6-0.2l-0.7,0.1c-2.9,0.5-6.3,3-7.7,5.6c0,0-1.3,2.4-3,5.3
		c-1.7,2.9-1.5,6.1,0.3,7.1l3.3,1.9c1.7,0.9,4.4,0.9,6,0l22.6-12.7c1.7-0.9,3-3.2,3-5.1V37.6c0-1.9-1.4-4.2-3-5.1L53,19.7
		c-1.7-0.9-4.4-0.9-6,0L24.5,32.4c-1.7,0.9-3,3.3-3,5.2v24.9c0,1.9,1.4,4.2,3,5.2C24.5,67.6,26.1,68.5,28.2,69.7z"/>
</g>
<g id="github_x5F_logo" class="st1">
	<g class="st3">
		<path class="st4" d="M50,19c-17.6,0-31.8,14.2-31.8,31.8c0,14,9.1,26,21.7,30.2c1.6,0.3,2.2-0.7,2.2-1.5c0-0.8,0-3.3,0-5.9
			c-8.8,1.9-10.7-3.8-10.7-3.8c-1.4-3.7-3.5-4.7-3.5-4.7c-2.9-2,0.2-1.9,0.2-1.9c3.2,0.2,4.9,3.3,4.9,3.3c2.8,4.9,7.4,3.5,9.2,2.6
			c0.3-2.1,1.1-3.5,2-4.3c-7.1-0.8-14.5-3.5-14.5-15.7c0-3.5,1.2-6.3,3.3-8.5c-0.3-0.8-1.4-4,0.3-8.4c0,0,2.7-0.9,8.7,3.3
			c2.5-0.7,5.3-1.1,8-1.1c2.7,0,5.4,0.4,8,1.1c6.1-4.1,8.7-3.3,8.7-3.3c1.7,4.4,0.6,7.6,0.3,8.4c2,2.2,3.3,5.1,3.3,8.5
			c0,12.2-7.4,14.9-14.5,15.7c1.1,1,2.2,2.9,2.2,5.9c0,4.3,0,7.7,0,8.7c0,0.8,0.6,1.8,2.2,1.5c12.6-4.2,21.7-16.1,21.7-30.2
			C81.8,33.2,67.6,19,50,19z"/>
		<path class="st0" d="M30.3,64.6c-0.1,0.2-0.3,0.2-0.5,0.1c-0.2-0.1-0.4-0.3-0.3-0.5c0.1-0.2,0.3-0.2,0.5-0.1
			C30.2,64.3,30.3,64.5,30.3,64.6L30.3,64.6z M29.9,64.3"/>
		<path class="st0" d="M31.5,66.1c-0.2,0.1-0.4,0.1-0.6-0.1c-0.2-0.2-0.2-0.5-0.1-0.7c0.2-0.1,0.4-0.1,0.7,0.1
			C31.7,65.6,31.7,65.9,31.5,66.1L31.5,66.1z M31.2,65.7"/>
		<path class="st0" d="M32.8,67.9c-0.2,0.1-0.5,0-0.7-0.3c-0.2-0.3-0.2-0.6,0-0.8c0.2-0.1,0.5,0,0.7,0.3C33,67.4,33,67.8,32.8,67.9
			L32.8,67.9z M32.8,67.9"/>
		<path class="st0" d="M34.5,69.7c-0.2,0.2-0.5,0.1-0.8-0.1c-0.3-0.3-0.4-0.6-0.2-0.8c0.2-0.2,0.5-0.1,0.8,0.1
			C34.6,69.1,34.7,69.5,34.5,69.7L34.5,69.7z M34.5,69.7"/>
		<path class="st0" d="M36.9,70.7c-0.1,0.2-0.4,0.4-0.8,0.3c-0.4-0.1-0.6-0.4-0.5-0.7c0.1-0.3,0.4-0.4,0.8-0.3
			C36.7,70.2,37,70.4,36.9,70.7L36.9,70.7z M36.9,70.7"/>
		<path class="st0" d="M39.5,70.9c0,0.3-0.3,0.5-0.7,0.5c-0.4,0-0.7-0.2-0.7-0.5c0-0.3,0.3-0.5,0.7-0.5
			C39.2,70.4,39.5,70.6,39.5,70.9L39.5,70.9z M39.5,70.9"/>
		<path class="st0" d="M41.9,70.5c0,0.3-0.2,0.5-0.6,0.6c-0.4,0.1-0.7-0.1-0.8-0.3c0-0.3,0.2-0.5,0.6-0.6
			C41.5,70.1,41.9,70.2,41.9,70.5L41.9,70.5z M41.9,70.5"/>
	</g>
</g>
<g id="dribbble_x5F_logo" class="st1">
	<path class="st2" d="M19,50c0-5.6,1.4-10.8,4.2-15.6c2.8-4.8,6.5-8.5,11.3-11.3C39.2,20.4,44.4,19,50,19c5.6,0,10.8,1.4,15.6,4.2
		c4.8,2.8,8.5,6.5,11.3,11.3C79.6,39.2,81,44.4,81,50s-1.4,10.8-4.2,15.6c-2.8,4.8-6.5,8.5-11.3,11.3C60.8,79.6,55.6,81,50,81
		c-5.6,0-10.8-1.4-15.6-4.2c-4.8-2.8-8.5-6.5-11.3-11.3C20.4,60.8,19,55.6,19,50z M24.1,50c0,6.4,2.2,12.1,6.5,17.1
		c2-3.9,5.1-7.6,9.4-11.1c4.3-3.5,8.5-5.7,12.6-6.6c-0.6-1.4-1.2-2.7-1.8-3.9c-7.1,2.3-14.8,3.4-23.1,3.4c-1.6,0-2.8,0-3.6-0.1
		c0,0.2,0,0.4,0,0.6C24.2,49.6,24.1,49.8,24.1,50z M25,43.6c0.9,0.1,2.3,0.1,4,0.1c6.9,0,13.5-0.9,19.7-2.8
		c-3.1-5.6-6.6-10.2-10.4-14c-3.3,1.7-6.1,3.9-8.4,6.9C27.5,36.8,25.9,40.1,25,43.6z M34.2,70.4c4.7,3.6,9.9,5.5,15.8,5.5
		c3.1,0,6.1-0.6,9.1-1.7c-0.8-7.1-2.4-13.9-4.8-20.5c-3.8,0.8-7.6,2.9-11.5,6.3C38.9,63.2,36,66.7,34.2,70.4z M43.7,25
		c3.6,3.8,7,8.5,10.1,14.1c5.6-2.4,9.9-5.4,12.7-9c-4.8-4-10.3-6-16.5-6C47.9,24.1,45.8,24.4,43.7,25z M56,43.5c0.6,1.3,1.3,3,2.1,5
		c3.1-0.3,6.4-0.4,10-0.4c2.6,0,5.1,0.1,7.6,0.2c-0.3-5.6-2.4-10.6-6.1-15C67,37.3,62.4,40.7,56,43.5z M59.7,52.9
		c2.1,6.1,3.5,12.4,4.3,18.8c3.3-2.1,5.9-4.8,8-8.1c2.1-3.3,3.3-6.9,3.7-10.7c-3-0.2-5.8-0.3-8.2-0.3C65.1,52.5,62.6,52.6,59.7,52.9
		z"/>
</g>
<g id="codepen_x5F_logo" class="st1">
	<g class="st3">
		<polygon points="24.4,45.6 24.4,54.4 31,50 		"/>
		<polygon points="47.3,39.1 47.3,26.7 26.5,40.6 35.8,46.8 		"/>
		<polygon points="73.5,40.6 52.7,26.7 52.7,39.1 64.2,46.8 		"/>
		<polygon points="26.5,59.4 47.3,73.3 47.3,60.9 35.8,53.2 		"/>
		<polygon points="52.7,60.9 52.7,73.3 73.5,59.4 64.2,53.2 		"/>
		<polygon points="50,43.7 40.6,50 50,56.3 59.4,50 		"/>
		<path d="M50,0C22.4,0,0,22.4,0,50c0,27.6,22.4,50,50,50c27.6,0,50-22.4,50-50C100,22.4,77.6,0,50,0z M80.9,59.4c0,0.1,0,0.2,0,0.3
			c0,0,0,0.1,0,0.1c0,0.1,0,0.1,0,0.2c0,0,0,0.1,0,0.1c0,0.1,0,0.1-0.1,0.2c0,0,0,0.1-0.1,0.1c0,0.1-0.1,0.1-0.1,0.2
			c0,0-0.1,0.1-0.1,0.1c0,0.1-0.1,0.1-0.1,0.2c0,0-0.1,0.1-0.1,0.1c0,0-0.1,0.1-0.1,0.1c0,0-0.1,0.1-0.1,0.1c0,0-0.1,0.1-0.2,0.1
			c0,0-0.1,0.1-0.1,0.1c0,0,0,0,0,0L51.5,80.5c-0.4,0.3-1,0.4-1.5,0.4c-0.5,0-1-0.1-1.5-0.4L20.3,61.6c0,0,0,0,0,0
			c0,0-0.1-0.1-0.1-0.1c-0.1,0-0.1-0.1-0.2-0.1c0,0-0.1-0.1-0.1-0.1c0,0-0.1-0.1-0.1-0.1c0,0-0.1-0.1-0.1-0.1c0-0.1-0.1-0.1-0.1-0.2
			c0,0-0.1-0.1-0.1-0.1c0-0.1-0.1-0.1-0.1-0.2c0,0,0-0.1-0.1-0.1c0-0.1,0-0.1-0.1-0.2c0,0,0-0.1,0-0.1c0-0.1,0-0.1,0-0.2
			c0,0,0-0.1,0-0.1c0-0.1,0-0.2,0-0.3V40.6c0-0.1,0-0.2,0-0.3c0,0,0-0.1,0-0.1c0-0.1,0-0.1,0-0.2c0,0,0-0.1,0-0.1
			c0-0.1,0-0.1,0.1-0.2c0,0,0-0.1,0.1-0.1c0-0.1,0.1-0.1,0.1-0.2c0,0,0-0.1,0.1-0.1c0-0.1,0.1-0.1,0.1-0.2c0,0,0.1-0.1,0.1-0.1
			c0,0,0.1-0.1,0.1-0.1c0,0,0.1-0.1,0.1-0.1c0,0,0.1-0.1,0.2-0.1c0,0,0.1-0.1,0.1-0.1c0,0,0,0,0,0l28.3-18.8c0.9-0.6,2.1-0.6,2.9,0
			l28.3,18.8c0,0,0,0,0,0c0,0,0.1,0.1,0.1,0.1c0.1,0,0.1,0.1,0.2,0.1c0,0,0.1,0.1,0.1,0.1c0,0,0.1,0.1,0.1,0.1c0,0,0.1,0.1,0.1,0.1
			c0,0.1,0.1,0.1,0.1,0.2c0,0,0.1,0.1,0.1,0.1c0,0.1,0.1,0.1,0.1,0.2c0,0,0,0.1,0.1,0.1c0,0.1,0,0.1,0.1,0.2c0,0,0,0.1,0,0.1
			c0,0.1,0,0.1,0,0.2c0,0,0,0.1,0,0.1c0,0.1,0,0.2,0,0.3V59.4z"/>
		<polygon points="75.6,54.4 75.6,45.6 69,50 		"/>
	</g>
</g>
</svg>
