<?xml version="1.0" standalone="no"?>
<!DOCTYPE svg PUBLIC "-//W3C//DTD SVG 20010904//EN"
 "http://www.w3.org/TR/2001/REC-SVG-20010904/DTD/svg10.dtd">
<svg version="1.0" xmlns="http://www.w3.org/2000/svg"
 width="700.000000pt" height="700.000000pt" viewBox="0 0 700.000000 700.000000"
 preserveAspectRatio="xMidYMid meet">
<metadata>
Created by potrace 1.14, written by Peter Selinger 2001-2017
</metadata>
<g transform="translate(0.000000,700.000000) scale(0.100000,-0.100000)"
fill="#000000" stroke="none">
<path d="M3367 6934 c-1 -1 -55 -5 -120 -8 -135 -8 -152 -10 -297 -31 -561
-84 -1096 -307 -1550 -646 -63 -48 -125 -95 -136 -105 -12 -10 -46 -39 -75
-64 -102 -85 -319 -311 -423 -441 -214 -267 -396 -574 -511 -864 -15 -38 -33
-83 -40 -100 -37 -87 -134 -432 -149 -529 -4 -21 -8 -48 -11 -60 -6 -26 -12
-66 -21 -125 -3 -25 -8 -57 -10 -71 -12 -78 -19 -231 -19 -425 1 -200 4 -270
21 -420 6 -45 46 -279 58 -330 59 -263 189 -614 313 -845 221 -411 474 -725
843 -1045 19 -16 90 -71 158 -122 106 -80 158 -115 277 -186 11 -7 22 -14 25
-17 28 -28 356 -188 495 -242 224 -87 456 -153 637 -183 18 -3 56 -10 83 -15
28 -5 77 -12 110 -15 32 -4 66 -8 75 -10 72 -14 482 -22 585 -11 22 2 76 7
120 11 118 10 347 50 483 84 477 120 938 346 1312 645 176 140 378 337 500
486 25 30 48 57 51 60 36 33 218 298 301 440 55 95 198 381 198 398 0 4 8 26
19 48 33 69 124 350 146 454 2 8 10 44 19 80 19 83 31 155 61 365 24 165 24
617 0 755 -2 14 -6 48 -9 75 -3 28 -13 91 -22 140 -8 50 -18 104 -21 120 -11
64 -66 265 -105 380 -215 645 -621 1218 -1163 1640 -86 68 -163 122 -224 160
-9 6 -41 26 -71 46 -196 127 -499 269 -740 347 -230 74 -476 130 -651 148 -30
3 -65 7 -79 10 -37 6 -437 22 -443 18z m1612 -1520 c103 -30 161 -72 287 -204
376 -394 618 -919 671 -1455 10 -101 10 -396 0 -495 -6 -64 -24 -182 -43 -281
-9 -47 -62 -233 -87 -304 -91 -254 -240 -522 -408 -730 -95 -118 -298 -316
-355 -347 -168 -91 -359 -62 -491 74 -36 36 -134 193 -231 368 -14 25 -33 57
-43 72 -11 14 -19 28 -19 31 0 3 -36 65 -79 140 -43 74 -90 154 -104 178 -36
65 -300 521 -400 690 -47 81 -93 169 -102 195 -36 102 -28 239 17 329 25 48
465 810 574 993 24 40 44 74 44 76 0 3 177 310 199 346 6 8 30 49 54 90 46 77
116 160 135 160 6 0 12 3 14 8 6 13 89 54 137 67 65 18 168 18 230 -1z m-2872
-18 c102 -12 221 -75 285 -151 15 -17 231 -380 306 -515 14 -24 49 -84 78
-133 30 -49 54 -91 54 -93 0 -2 22 -41 49 -86 27 -46 58 -99 68 -118 11 -19
53 -91 93 -160 40 -68 81 -139 91 -157 21 -37 28 -48 127 -220 89 -153 104
-197 105 -298 0 -100 -23 -170 -102 -303 -32 -54 -69 -117 -83 -142 -24 -42
-87 -152 -223 -385 -32 -55 -66 -113 -75 -130 -137 -238 -209 -362 -270 -465
-5 -8 -43 -76 -86 -150 -42 -74 -91 -155 -107 -179 -130 -192 -379 -247 -584
-130 -159 91 -457 483 -616 809 -107 219 -203 530 -223 720 -3 30 -7 61 -9 68
-7 20 -18 200 -18 292 -1 195 28 433 73 605 12 44 23 87 25 95 9 35 65 191 95
265 93 224 251 478 410 660 145 165 247 252 333 282 39 14 136 32 147 27 3 -1
28 -4 57 -8z"/>
</g>
</svg>
